<?xml version="1.0" encoding="UTF-8" standalone="no"?>
<!-- Created with Inkscape (http://www.inkscape.org/) -->

<svg
   version="1.1"
   id="svg182"
   width="800"
   height="648.44598"
   viewBox="0 0 800 648.44597"
   sodipodi:docname="Loto ES La Ciotat.svg"
   xml:space="preserve"
   inkscape:version="1.2 (dc2aeda, 2022-05-15)"
   xmlns:inkscape="http://www.inkscape.org/namespaces/inkscape"
   xmlns:sodipodi="http://sodipodi.sourceforge.net/DTD/sodipodi-0.dtd"
   xmlns:xlink="http://www.w3.org/1999/xlink"
   xmlns="http://www.w3.org/2000/svg"
   xmlns:svg="http://www.w3.org/2000/svg"><sodipodi:namedview
     id="namedview232"
     pagecolor="#ffffff"
     bordercolor="#666666"
     borderopacity="1.0"
     inkscape:showpageshadow="2"
     inkscape:pageopacity="0.0"
     inkscape:pagecheckerboard="0"
     inkscape:deskcolor="#d1d1d1"
     showgrid="false"
     inkscape:zoom="4.3297327"
     inkscape:cx="612.04702"
     inkscape:cy="394.13519"
     inkscape:window-width="1920"
     inkscape:window-height="889"
     inkscape:window-x="0"
     inkscape:window-y="25"
     inkscape:window-maximized="0"
     inkscape:current-layer="svg182" /><defs
     id="defs186"><linearGradient
       inkscape:collect="always"
       id="linearGradient49556"><stop
         style="stop-color:#fdfdfd;stop-opacity:1"
         offset="0"
         id="stop49552" /><stop
         style="stop-color:#c0c0c0;stop-opacity:1"
         offset="0.45352262"
         id="stop49566" /><stop
         style="stop-color:#fefefe;stop-opacity:1"
         offset="0.47322443"
         id="stop49564" /><stop
         style="stop-color:#b8b8b8;stop-opacity:1"
         offset="0.93238062"
         id="stop49562" /><stop
         style="stop-color:#dcdede;stop-opacity:1"
         offset="0.95777953"
         id="stop49560" /><stop
         style="stop-color:#dadbd3;stop-opacity:1"
         offset="1"
         id="stop49554" /></linearGradient><linearGradient
       inkscape:collect="always"
       id="linearGradient35702"><stop
         style="stop-color:#cccccc;stop-opacity:1"
         offset="0"
         id="stop35698" /><stop
         style="stop-color:#eeeeee;stop-opacity:1"
         offset="0.19857162"
         id="stop35714" /><stop
         style="stop-color:#fcfefd;stop-opacity:1"
         offset="0.31825712"
         id="stop35712" /><stop
         style="stop-color:#edfdfa;stop-opacity:1"
         offset="0.49623594"
         id="stop35708" /><stop
         style="stop-color:#dedede;stop-opacity:1"
         offset="0.62405896"
         id="stop35710" /><stop
         style="stop-color:#cccccc;stop-opacity:1"
         offset="0.7426371"
         id="stop35706" /><stop
         style="stop-color:#cfc2c2;stop-opacity:1"
         offset="1"
         id="stop35700" /></linearGradient><linearGradient
       inkscape:collect="always"
       id="linearGradient27463"><stop
         style="stop-color:#d3dad7;stop-opacity:1"
         offset="0"
         id="stop27459" /><stop
         style="stop-color:#fdfdfd;stop-opacity:1"
         offset="0.36640084"
         id="stop27467" /><stop
         style="stop-color:#ffffff;stop-opacity:1"
         offset="0.5072403"
         id="stop35585" /><stop
         style="stop-color:#d9d9d9;stop-opacity:1"
         offset="0.63930744"
         id="stop27469" /><stop
         style="stop-color:#cecac8;stop-opacity:1"
         offset="1"
         id="stop27461" /></linearGradient><linearGradient
       inkscape:collect="always"
       id="linearGradient17854"><stop
         style="stop-color:#f4776b;stop-opacity:1"
         offset="0"
         id="stop17850" /><stop
         style="stop-color:#d42232;stop-opacity:1"
         offset="0.14922047"
         id="stop17858" /><stop
         style="stop-color:#d42232;stop-opacity:1"
         offset="0.8657015"
         id="stop17860" /><stop
         style="stop-color:#e77468;stop-opacity:1"
         offset="1"
         id="stop17852" /></linearGradient><linearGradient
       inkscape:collect="always"
       xlink:href="#linearGradient17854"
       id="linearGradient17856"
       x1="214.26822"
       y1="405.0192"
       x2="389.34103"
       y2="402.40616"
       gradientUnits="userSpaceOnUse" /><linearGradient
       inkscape:collect="always"
       xlink:href="#linearGradient17854"
       id="linearGradient23319"
       x1="525.21844"
       y1="399.79312"
       x2="702.9043"
       y2="397.18011"
       gradientUnits="userSpaceOnUse" /><linearGradient
       inkscape:collect="always"
       xlink:href="#linearGradient17854"
       id="linearGradient24503"
       gradientUnits="userSpaceOnUse"
       x1="525.21844"
       y1="399.79312"
       x2="702.9043"
       y2="397.18011" /><linearGradient
       inkscape:collect="always"
       xlink:href="#linearGradient27463"
       id="linearGradient27465"
       x1="247.59035"
       y1="245.74266"
       x2="633.75739"
       y2="129.33824"
       gradientUnits="userSpaceOnUse" /><linearGradient
       inkscape:collect="always"
       xlink:href="#linearGradient35702"
       id="linearGradient35704"
       x1="94.232147"
       y1="242.04727"
       x2="678.10193"
       y2="3.6953783"
       gradientUnits="userSpaceOnUse" /><linearGradient
       inkscape:collect="always"
       xlink:href="#linearGradient49556"
       id="linearGradient49558"
       x1="519.20062"
       y1="269.7626"
       x2="518.27679"
       y2="433.74503"
       gradientUnits="userSpaceOnUse" /><linearGradient
       inkscape:collect="always"
       xlink:href="#linearGradient49556"
       id="linearGradient62317"
       x1="311.60345"
       y1="269.14178"
       x2="312.90997"
       y2="432.45596"
       gradientUnits="userSpaceOnUse" /><linearGradient
       inkscape:collect="always"
       xlink:href="#linearGradient49556"
       id="linearGradient62325"
       x1="126.07855"
       y1="268.48853"
       x2="126.07855"
       y2="432.45596"
       gradientUnits="userSpaceOnUse" /><linearGradient
       inkscape:collect="always"
       xlink:href="#linearGradient17854"
       id="linearGradient62870"
       gradientUnits="userSpaceOnUse"
       x1="525.21844"
       y1="399.79312"
       x2="702.9043"
       y2="397.18011" /></defs><g
     id="g629"><path
       style="fill:#000000;stroke:none;stroke-width:1px;stroke-linecap:butt;stroke-linejoin:miter;stroke-opacity:1"
       d="m 691.14564,408.28547 -30.70306,49.64751 58.13985,45.72798 z"
       id="path566" /><path
       style="fill:#000000;stroke:none;stroke-width:0.810053px;stroke-linecap:butt;stroke-linejoin:miter;stroke-opacity:1"
       d="m 660.05613,177.92875 100.28063,-3.1e-4 -86.81009,80.82351 z"
       id="path27135"
       sodipodi:nodetypes="cccc" /><path
       style="fill:#000000;stroke:none;stroke-width:0.810053px;stroke-linecap:butt;stroke-linejoin:miter;stroke-opacity:1"
       d="M 175.49193,213.84947 50.786515,219.67015 4.7622247,353.62789 H 134.60325 l 16.46369,-34.79905 H 62.386725 l 4.899871,-14.21864 h 42.621114 l 46.77264,-32.92897 H 91.572355 l -18.284724,15.516 11.922966,-34.59812 h 80.823333 l 14.22023,-32.92896 z"
       id="path17158" /><path
       id="circle23852"
       style="fill:#000000;stroke:none;stroke-width:0.252936;stroke-linejoin:bevel;stroke-dasharray:none"
       d="M 383.67187,0 C 247.43739,9.6222963e-5 131.12812,84.024738 83.14,203.07761 68.053742,240.50484 59.449248,281.39396 59.449219,324.22266 59.449346,503.28583 204.6087,648.44518 383.67187,648.44531 525.59698,648.30648 650.93581,555.87663 693.00586,420.33008 l -43.01562,-145.96289 45.52148,-38.7207 c -5.66506,-19.86526 -13.21566,-39.14366 -22.54883,-57.57227 L 610.79492,178.33984 564.41406,75.125 572.01904,61.098 C 517.02352,21.71099 451.31684,0.04258082 383.67187,0 Z"
       sodipodi:nodetypes="cscccccccccc" /></g><g
     id="g62730"
     transform="matrix(0.81005283,0,0,0.81005283,-2.9933983,-3.1750719)"><path
       id="path17693"
       style="fill:url(#linearGradient17856);fill-opacity:1;stroke:none;stroke-width:0.302054;stroke-linejoin:bevel;stroke-dasharray:none"
       d="M 386.72852,28.648438 A 387.18393,387.18393 0 0 0 209.04297,126.29297 v 142.14844 l 11.29492,-0.52735 5.87891,7.18555 -17.17383,39.76758 v 94.91601 l 4.25586,-10.31445 h 117.67969 c 3.64948,-0.14604 3.4988,-19.95228 -0.90625,-20.17773 h -61.20313 c -23.76842,0.0949 -36.79166,-28.97376 -36.88086,-50.5 -0.0701,-16.93382 22.07285,-51.72247 40.40234,-51.73047 h 114.3379 z m -85.8418,289.062502 c -12.01459,0.15784 -19.13123,19.98047 0.11133,19.98047 h 52.71289 c 15.83005,0 27.35113,9.86313 33.01758,25.2539 v -45.23437 z m 85.8418,89.8789 c -7.29319,19.3987 -23.72038,35.17228 -40.86719,34.83985 H 209.04297 v 239.61523 a 387.18393,387.18393 0 0 0 177.68555,97.64258 z" /><path
       style="fill:url(#linearGradient24503);fill-opacity:1;stroke:none;stroke-width:0.302054;stroke-linejoin:bevel;stroke-dasharray:none"
       d="M 674.81445,488.63672 525.04297,604.70898 V 787.94141 A 387.18393,387.18393 0 0 0 702.72852,717.85938 V 512.0957 Z"
       id="path24394" /><path
       style="fill:url(#linearGradient62870);fill-opacity:1;stroke:none;stroke-width:0.302054;stroke-linejoin:bevel;stroke-dasharray:none"
       d="m 702.72852,167.71484 -52.3418,100.19922 h -22.04883 l 5.22656,9.79883 -19.55468,40.65039 h -88.9668 v 71.96094 h 41.14453 l 5.22656,9.79883 -20.49218,42.95898 h -25.87891 v 83.10352 l 145.85156,-113.98047 31.83399,25.89453 z"
       id="path24511" /><path
       style="fill:url(#linearGradient23319);fill-opacity:1;stroke:none;stroke-width:0.302054;stroke-linejoin:bevel;stroke-dasharray:none"
       d="M 525.04297,20.052734 V 200.47461 h 87.4668 L 677.11719,73.005859 A 387.18393,387.18393 0 0 0 525.04297,20.052734 Z"
       id="circle17687" /></g><g
     id="g23550"
     style="fill:#fffaf5;fill-opacity:1"
     transform="matrix(0.81005283,0,0,0.81005283,-2.9933983,-3.1750719)"><g
       id="g12064"
       style="fill:#fffaf5;fill-opacity:1;stroke:none"><path
         id="rect2231"
         style="fill:#fffaf5;fill-opacity:1;stroke:none;stroke-width:0.2;stroke-linejoin:bevel"
         d="m 384.33251,689.38831 -10.46032,46.67997 31.82351,7.07209 2.57417,-11.58006 -17.9091,-3.97896 1.3761,-6.18729 16.82945,3.74128 2.82835,-12.72632 -16.83137,-3.74158 0.88461,-3.97114 16.952,3.76656 2.71858,-12.23152 z"
         sodipodi:nodetypes="ccccccccccccc" /><path
         id="path2669"
         style="fill:#fffaf5;fill-opacity:1;stroke:none;stroke-width:0.44132;stroke-linejoin:bevel"
         d="m 236.36304,580.08814 c -4.35569,-7.68951 -11.61397,-12.50945 -21.50913,-12.15322 -13.76717,0.49565 -26.37853,12.73309 -24.7708,26.37945 1.60774,13.64637 11.77918,24.71082 25.54635,24.21516 13.76717,-0.49564 25.9825,-13.86929 24.37476,-27.51565 -0.45216,-3.83804 -1.93678,-7.91681 -3.64118,-10.92574 z m -10.60082,6.99108 c 1.97195,4.13752 0.52264,9.65757 -3.55944,13.55698 -5.08005,4.85313 -12.48155,5.59275 -16.53223,1.65202 -4.05175,-3.94169 -3.21632,-11.07303 1.8658,-15.92666 5.08073,-4.85347 12.48306,-5.59236 16.53321,-1.65033 0.69916,0.68104 1.26915,1.47845 1.69266,2.36799 z"
         sodipodi:nodetypes="ssssssccsccc" /><path
         id="rect2728"
         style="fill:#fffaf5;fill-opacity:1;stroke:none;stroke-width:0.2;stroke-linejoin:bevel"
         d="m 611.09049,236.30472 -0.001,46.65028 14.07574,-3.3e-4 -7.5e-4,-12.03827 c 8.40337,5.6231 18.10705,9.35045 27.10838,12.13113 l -0.38671,-11.42851 -9.78998,-3.64687 c 7.87695,-6.00994 10.86282,-9.11746 10.17406,-18.57375 -0.53005,-7.27732 -8.79432,-13.05461 -16.84086,-13.47462 z m 13.69427,10.85191 8.75063,0.56325 c 4.99298,0.0673 4.85968,12.16369 -0.089,12.25274 l -8.49196,0.1652 z"
         transform="rotate(46.114512)" /><path
         id="path5148"
         style="fill:#fffaf5;fill-opacity:1;stroke:none;stroke-width:0.2;stroke-linejoin:bevel"
         d="m 199.28261,518.56852 -42.22472,19.83235 5.98467,12.74011 10.73246,-4.79219 c 0.96132,5.76976 2.60469,10.17547 7.25046,15.70659 4.02744,4.79495 13.36072,5.62921 21.62698,0.98542 6.36149,-3.57376 10.36345,-15.14329 7.32257,-22.60495 z m -4.00011,17.00871 3.21056,8.9764 c 2.06185,4.54788 -9.27012,9.73338 -11.45468,5.29209 l -4.41318,-7.94266 z"
         sodipodi:nodetypes="ccccssccccccc" /><path
         id="path5386"
         style="fill:#fffaf5;fill-opacity:1;stroke:none;stroke-width:0.2;stroke-linecap:butt;stroke-linejoin:miter;stroke-dasharray:none;stroke-opacity:1"
         d="m 338.55078,669.91406 c -3.21279,18.3604 -2.27741,33.41391 -2.61328,49.97461 l 11.00781,4.54102 c 11.36899,-12.0464 22.58924,-22.12806 33.16797,-37.47461 l -14.01953,-5.30469 c -4.79487,8.32327 -10.40693,14.65427 -16.33789,20.20703 -0.34039,-8.1285 0.0955,-16.58963 2.51367,-25.90039 z"
         sodipodi:nodetypes="cccccccc" /><path
         id="path5391"
         style="fill:#fffaf5;fill-opacity:1;stroke:none;stroke-width:0.2;stroke-linecap:butt;stroke-linejoin:miter;stroke-dasharray:none;stroke-opacity:1"
         d="m 505.01367,700.53711 -14.08398,0.53906 c -5.7493,16.11989 -9.44018,29.47933 -12.35938,47.88867 l 14.47266,-0.57226 c 0.18465,-2.41274 0.48053,-5.05067 0.86328,-7.76563 l 13.94336,-0.52539 c 0.65291,2.28874 1.21126,4.53389 1.62305,6.65039 l 14.98242,-0.46875 c -5.02613,-17.94891 -10.98013,-31.93256 -19.44141,-45.74609 z m -5.83789,17.60937 c 1.57925,2.9743 3.29298,6.78599 4.89844,10.88282 l -8.11719,0.30468 c 0.94258,-4.22413 2.03578,-8.15605 3.21875,-11.1875 z" /><path
         id="path8587"
         style="fill:#fffaf5;fill-opacity:1;stroke:none;stroke-width:0.43928;stroke-linejoin:bevel"
         d="m 556.37891,697.28906 c -5.70347,12.42392 -0.38411,29.01586 12.54492,33.62696 9.16738,3.2695 19.09265,2.14341 26.12695,-3.21485 l -4.10251,-11.47549 c -2.0184,1.65098 -4.88731,3.22137 -8.62162,4.5148 -5.33623,1.84833 -12.03682,-3.66367 -14.11086,-10.31595 -2.83652,-13.05708 10.30236,-16.95363 15.82153,-17.07869 l -3.5881,-9.69936 c -10.42225,-0.6096 -20.63312,6.52669 -24.07031,13.64258 z"
         sodipodi:nodetypes="csccscccc" /><path
         style="fill:#fffaf5;fill-opacity:1;stroke:none;stroke-width:0.2;stroke-linecap:butt;stroke-linejoin:miter;stroke-dasharray:none;stroke-opacity:1"
         d="m 141.81014,495.18069 11.08614,-3.69538 4.27278,13.28026 c 1.92442,4.65008 3.69563,4.70384 5.3121,0.11548 l 5.19663,-13.28026 c 3.86607,-10.23112 17.05004,-10.14 21.13294,-1.50125 3.36905,7.12835 4.30049,9.97985 7.27528,22.51871 l -10.50873,2.30961 -3.46442,-11.43257 c -1.97891,-6.53041 -5.19233,-3.41757 -6.12047,0.92384 -0.86335,4.03833 -2.13474,7.76378 -4.50375,12.24094 -6.22506,11.76469 -19.16158,8.9496 -22.74967,-0.5774 z"
         id="path8716"
         sodipodi:nodetypes="cccccsccssscc" /><g
         id="g10375"
         transform="rotate(5.0614145,-6774.126,432.01648)"
         style="fill:#fffaf5;fill-opacity:1;stroke:none"><path
           id="path10373"
           style="fill:#fffaf5;fill-opacity:1;stroke:none;stroke-width:0.2;stroke-linejoin:bevel"
           d="m 454.48528,81.105014 -15.15978,6.8e-5 3.7e-4,47.854478 32.71226,4.3e-4 v -12.68886 l -17.55451,0.001 z"
           transform="rotate(-2.399517)"
           sodipodi:nodetypes="ccccccc" /></g><rect
         style="fill:#fffaf5;fill-opacity:1;stroke:none;stroke-width:0.2;stroke-linejoin:bevel"
         id="rect10377"
         width="15.159566"
         height="47.854912"
         x="263.35294"
         y="858.00208"
         transform="rotate(-23.640617)" /><path
         id="path10379"
         style="fill:#fffaf5;fill-opacity:1;stroke:none;stroke-width:0.44132;stroke-linejoin:bevel"
         d="m 644.46346,705.58316 c 8.3789,-2.80975 14.49426,-9.01594 16.03113,-18.79751 2.13823,-13.60914 -7.47032,-28.3223 -21.17289,-29.34582 -13.70257,-1.0235 -26.50331,6.85186 -28.64153,20.461 -2.13823,13.60914 8.66118,28.15016 22.36375,29.17367 3.85385,0.28787 8.14085,-0.39187 11.41954,-1.49134 z m -4.84174,-11.73926 c -4.43758,1.14694 -9.58006,-1.32821 -12.62967,-6.07886 -3.79557,-5.91214 -3.11049,-13.31889 1.53024,-16.54395 4.64187,-3.22592 11.48313,-1.04619 15.27879,4.86808 3.79578,5.91288 3.10982,13.3203 -1.53209,16.54459 -0.80184,0.55649 -1.6933,0.964 -2.64727,1.21014 z"
         sodipodi:nodetypes="ssssssccsccc" /><path
         id="path10381"
         style="fill:#fffaf5;fill-opacity:1;stroke:none;stroke-width:0.2;stroke-linecap:butt;stroke-linejoin:miter;stroke-dasharray:none;stroke-opacity:1"
         d="m 691.81728,607.39074 -10.20061,9.72608 c 6.35984,15.88892 12.43558,28.34616 22.43223,44.07804 l 10.46999,-10.00823 c -1.45854,-1.93081 -2.98276,-4.10405 -4.49285,-6.39254 l 10.10426,-9.62275 c 2.00431,1.28349 3.90888,2.5969 5.61844,3.91088 l 10.92062,-10.26805 c -15.64775,-10.12783 -29.36648,-16.66916 -44.85208,-21.42343 z m 7.27931,17.06408 c 3.15245,1.18426 6.95998,2.90722 10.87507,4.91559 l -5.88301,5.60105 c -2.08933,-3.79031 -3.87235,-7.46127 -4.99206,-10.51664 z" /><path
         id="path10383"
         style="fill:#fffaf5;fill-opacity:1;stroke:none;stroke-width:0.2;stroke-linejoin:bevel"
         d="m 315.16015,656.63504 -28.47441,-21.39768 -7.37797,9.81847 8.34203,6.26848 -21.40707,28.48595 11.79035,8.86075 21.40617,-28.48768 8.34293,6.27019 z"
         sodipodi:nodetypes="ccccccccc" /><path
         id="path10385"
         style="fill:#fffaf5;fill-opacity:1;stroke:none;stroke-width:0.2;stroke-linejoin:bevel"
         d="m 721.82705,569.25094 -21.90676,28.08464 9.68407,7.55351 6.41762,-8.22785 28.096,21.91636 9.07154,-11.62894 -28.09774,-21.9155 6.41935,-8.22871 z"
         sodipodi:nodetypes="ccccccccc" /><path
         id="path10387"
         style="fill:#fffaf5;fill-opacity:1;stroke:none;stroke-width:0.2;stroke-linejoin:bevel"
         d="m 671.73036,626.21042 -27.3051,22.87104 7.8864,9.41496 7.99916,-6.7005 22.88015,27.31687 11.3068,-9.47003 -22.88203,-27.31638 8.00104,-6.70099 z"
         sodipodi:nodetypes="ccccccccc" /><rect
         style="fill:#fffaf5;fill-opacity:1;stroke:none;stroke-width:0.2;stroke-linejoin:bevel"
         id="rect10389"
         width="15.159566"
         height="47.854912"
         x="610.15326"
         y="407.3331"
         transform="rotate(30.345202)" /></g><g
       id="g12145"
       style="fill:#fffaf5;fill-opacity:1;stroke:none"><rect
         style="fill:#fffaf5;fill-opacity:1;stroke:none;stroke-width:0.2;stroke-linejoin:bevel"
         id="rect2017"
         width="15.159566"
         height="47.854912"
         x="402.2533"
         y="122.63236"
         transform="rotate(-7.8995488)" /><g
         id="g2229"
         style="fill:#fffaf5;fill-opacity:1;stroke:none"><path
           id="rect2175"
           style="fill:#fffaf5;fill-opacity:1;stroke:none;stroke-width:0.2;stroke-linejoin:bevel"
           d="m 454.48528,81.105014 -15.15978,6.8e-5 3.7e-4,47.854478 32.71226,4.3e-4 v -12.68886 l -17.55451,0.001 z"
           transform="rotate(-2.399517)"
           sodipodi:nodetypes="ccccccc" /></g><path
         id="rect2296"
         style="fill:#fffaf5;fill-opacity:1;stroke:none;stroke-width:0.2;stroke-linejoin:bevel"
         d="m 276.2283,225.4332 -35.61816,-3.2e-4 1.5e-4,12.28157 10.43471,-1.6e-4 -9e-4,35.63302 14.74874,6.5e-4 -8.6e-4,-35.63386 10.43647,6.8e-4 z"
         transform="rotate(-25.427396)"
         sodipodi:nodetypes="ccccccccc" /><path
         id="rect2368"
         style="fill:#fffaf5;fill-opacity:1;stroke:none;stroke-width:0.2;stroke-linejoin:bevel"
         d="m 203.21514,251.14071 -31.53685,2.5e-4 -0.0844,47.83546 32.59954,9e-5 0.001,-11.86184 -18.34523,-10e-4 -8e-5,-6.33598 17.24134,5e-4 3e-5,-13.03613 -17.24134,-5e-4 -0.001,-4.07023 17.36597,2.9e-4 z"
         transform="rotate(-32.101973)"
         sodipodi:nodetypes="ccccccccccccc" /><path
         id="ellipse2496"
         style="fill:#fffaf5;fill-opacity:1;stroke:none;stroke-width:0.44205;stroke-linejoin:bevel"
         d="m 87.989292,374.93294 c -3.437411,-7.86722 -10.103895,-12.96201 -20.00546,-12.96201 -13.776093,0 -27.778898,11.81478 -27.7789,25.55553 2e-6,13.74075 8.836168,25.20182 22.612261,25.20182 13.776091,0 27.517654,-12.96832 27.517655,-26.70906 0,-3.86459 -1.000482,-8.0078 -2.345556,-11.08628 z m -11.383577,6.62704 c 1.479177,4.21972 -0.612963,9.70215 -5.138192,13.46459 -5.631584,4.68268 -13.093433,5.15709 -16.666994,1.05964 -3.574532,-4.09845 -1.90493,-11.21862 3.728781,-15.90172 5.632305,-4.68299 13.094894,-5.15665 16.667777,-1.05792 0.616712,0.70809 1.091061,1.5282 1.408628,2.43541 z"
         transform="matrix(0.4728774,-0.88112824,0.9166151,0.39977088,0,0)"
         sodipodi:nodetypes="ssssssccsccc" /><path
         id="path12066"
         style="fill:#fffaf5;fill-opacity:1;stroke:none;stroke-width:0.2;stroke-linejoin:bevel"
         d="m 515.14009,63.020318 -31.50727,-1.365478 -2.15587,47.78692 32.56895,1.41185 0.51468,-11.850671 -18.32798,-0.795455 0.27428,-6.330037 17.22514,0.747155 0.56458,-13.023903 -17.22515,-0.747155 0.17525,-4.066459 17.34967,0.752341 z"
         sodipodi:nodetypes="ccccccccccccc" /></g><g
       id="g12357"
       style="fill:#fffaf5;fill-opacity:1"><path
         sodipodi:type="star"
         style="fill:#fffaf5;fill-opacity:1;stroke:none;stroke-width:0.2;stroke-linejoin:bevel;stroke-dasharray:none"
         id="path12270"
         inkscape:flatsided="false"
         sodipodi:sides="5"
         sodipodi:cx="198.91669"
         sodipodi:cy="183.56516"
         sodipodi:r1="23.199814"
         sodipodi:r2="9.0517387"
         sodipodi:arg1="0.95545678"
         sodipodi:arg2="1.5837753"
         inkscape:rounded="0"
         inkscape:randomized="0"
         d="m 212.30845,202.5096 -13.50924,-9.89347 -13.76148,9.5395 5.23466,-15.9053 -13.32513,-10.14007 16.74444,0.0634 5.52609,-15.80641 5.11397,15.94451 16.74045,0.37118 -13.58384,9.7908 z"
         inkscape:transform-center-x="-0.19443478"
         inkscape:transform-center-y="-2.0296525"
         transform="rotate(0.8104731,-1433.313,1211.1363)" /><path
         sodipodi:type="star"
         style="fill:#fffaf5;fill-opacity:1;stroke:none;stroke-width:0.2;stroke-linejoin:bevel;stroke-dasharray:none"
         id="path12272"
         inkscape:flatsided="false"
         sodipodi:sides="5"
         sodipodi:cx="198.91669"
         sodipodi:cy="183.56516"
         sodipodi:r1="23.199814"
         sodipodi:r2="9.0517387"
         sodipodi:arg1="0.95545678"
         sodipodi:arg2="1.5837753"
         inkscape:rounded="0"
         inkscape:randomized="0"
         d="m 212.30845,202.5096 -13.50924,-9.89347 -13.76148,9.5395 5.23466,-15.9053 -13.32513,-10.14007 16.74444,0.0634 5.52609,-15.80641 5.11397,15.94451 16.74045,0.37118 -13.58384,9.7908 z"
         inkscape:transform-center-x="-0.19443478"
         inkscape:transform-center-y="-2.0296525"
         transform="rotate(0.8104731,941.82803,4011.5022)" /><path
         sodipodi:type="star"
         style="fill:#fffaf5;fill-opacity:1;stroke:none;stroke-width:0.2;stroke-linejoin:bevel;stroke-dasharray:none"
         id="path12274"
         inkscape:flatsided="false"
         sodipodi:sides="5"
         sodipodi:cx="198.91669"
         sodipodi:cy="183.56516"
         sodipodi:r1="23.199814"
         sodipodi:r2="9.0517387"
         sodipodi:arg1="0.95545678"
         sodipodi:arg2="1.5837753"
         inkscape:rounded="0"
         inkscape:randomized="0"
         d="m 212.30845,202.5096 -13.50924,-9.89347 -13.76148,9.5395 5.23466,-15.9053 -13.32513,-10.14007 16.74444,0.0634 5.52609,-15.80641 5.11397,15.94451 16.74045,0.37118 -13.58384,9.7908 z"
         inkscape:transform-center-x="-0.0398319"
         inkscape:transform-center-y="-2.1774678"
         transform="rotate(-0.42531973,-10969.847,-49271.292)" /><path
         sodipodi:type="star"
         style="fill:#fffaf5;fill-opacity:1;stroke:none;stroke-width:0.2;stroke-linejoin:bevel;stroke-dasharray:none"
         id="path12276"
         inkscape:flatsided="false"
         sodipodi:sides="5"
         sodipodi:cx="198.91669"
         sodipodi:cy="183.56516"
         sodipodi:r1="23.199814"
         sodipodi:r2="9.0517387"
         sodipodi:arg1="0.95545678"
         sodipodi:arg2="1.5837753"
         inkscape:rounded="0"
         inkscape:randomized="0"
         d="m 212.30845,202.5096 -13.50924,-9.89347 -13.76148,9.5395 5.23466,-15.9053 -13.32513,-10.14007 16.74444,0.0634 5.52609,-15.80641 5.11397,15.94451 16.74045,0.37118 -13.58384,9.7908 z"
         inkscape:transform-center-x="-0.0398319"
         inkscape:transform-center-y="-2.1774678"
         transform="rotate(-0.42531973,-8130.2886,-55596.932)" /></g></g><g
     id="g16116"
     style="fill:#ffffff"
     transform="matrix(0.81005283,0,0,0.81005283,-2.9933983,-3.1750719)"><path
       d="m 629.56011,384.62747 v -55.2887 H 620.235 c -3.6101,6.57731 -8.97997,7.92865 -15.292,7.77923 v 8.851 h 9.4014 v 38.65847 z"
       style="font-weight:bold;font-size:86.1798px;line-height:1.25;font-family:'Helvetica Neue';-inkscape-font-specification:'Helvetica Neue Bold';letter-spacing:10px;white-space:pre;fill:#ffffff;stroke:none;stroke-width:0.916501"
       id="path13429"
       sodipodi:nodetypes="cccccccc" /><path
       id="path13444"
       style="font-weight:bold;font-size:86.1798px;line-height:1.25;font-family:'Helvetica Neue';-inkscape-font-specification:'Helvetica Neue Bold';letter-spacing:10px;white-space:pre;fill:#ffffff;stroke:none;stroke-width:0.2;stroke-dasharray:none"
       d="m 660.06445,328.21094 c -6.2413,-0.0338 -12.48267,1.74258 -17.20898,5.94531 -7.32341,6.16019 -8.46504,19.89028 -2.00781,27.11523 4.27591,4.53958 9.79207,6.46207 15.50976,6.4336 6.78334,-0.0338 9.59129,-1.62584 12.51758,-3.81641 -1.05711,6.10875 -4.01554,8.94849 -9.09766,10.55078 -6.72954,2.09824 -10.85297,-0.847 -16.08007,-2.55859 v 10.65039 c 4.6335,4.09209 22.71476,2.70548 27.12109,0.75195 6.98835,-3.36057 11.71356,-10.31665 13.29297,-17.79492 1.68833,-7.37285 1.23591,-15.23384 -1.11719,-22.4082 -2.29199,-6.58064 -7.84437,-11.86825 -14.56055,-13.75781 -2.69468,-0.70605 -5.53218,-1.09597 -8.36914,-1.11133 z m -0.30273,11.79101 c 1.33241,-0.0125 2.67236,0.185 3.91211,0.56641 2.27859,0.74669 4.18129,2.31037 5.14648,4.21875 1.28893,2.38606 1.09828,5.28563 -0.40039,7.56836 -1.42717,2.1571 -4.18786,3.54743 -7.06836,3.70898 -0.50175,0.0421 -1.00566,0.0605 -1.50976,0.0605 -2.11866,0.0198 -4.30441,-0.45174 -5.94727,-1.63672 -2.16206,-1.47173 -3.32564,-3.82496 -3.36133,-6.1582 -0.18368,-2.82362 1.45062,-5.72962 4.35157,-7.16992 1.46152,-0.77663 3.16385,-1.14215 4.87695,-1.15821 z" /><path
       d="m 706.06472,350.103 c -0.1147,-4.74165 2.2813,-7.68559 5.99094,-8.73433 3.00207,-0.84871 7.76357,0.16075 8.60103,3.65013 0.58515,2.43808 1.22024,3.90723 -1.08872,6.39155 -3.78787,4.07555 -8.91181,5.28886 -13.43096,8.36067 -6.31684,3.76021 -11.85023,7.21262 -14.55125,14.39201 -0.54255,2.1589 -1.89597,8.92923 -0.7314,10.46444 h 45.71316 v -12.63649 h -27.71941 c 4.86667,-5.91863 9.98469,-4.91436 16.28506,-8.97455 5.3072,-3.09051 10.33081,-8.03458 10.81649,-14.48706 0.89996,-6.42011 -2.5015,-13.94604 -8.15423,-16.99726 -6.98798,-3.87964 -15.72977,-4.3133 -23.19199,-1.56147 -7.37317,2.59935 -12.31546,10.03197 -12.70412,17.72232 z"
       style="font-weight:bold;font-size:86.1798px;line-height:1.25;font-family:'Helvetica Neue';-inkscape-font-specification:'Helvetica Neue Bold';letter-spacing:10px;white-space:pre;fill:#ffffff;stroke:none;stroke-width:0.977169"
       id="path13433"
       sodipodi:nodetypes="cssscccccccccccc" /><path
       d="m 764.96036,384.62747 v -55.2887 h -9.32511 c -3.6101,6.57731 -8.97997,7.92865 -15.292,7.77923 v 8.851 h 9.4014 v 38.65847 z"
       style="font-weight:bold;font-size:86.1798px;line-height:1.25;font-family:'Helvetica Neue';-inkscape-font-specification:'Helvetica Neue Bold';letter-spacing:10px;white-space:pre;fill:#ffffff;stroke:none;stroke-width:0.916501"
       id="path15060"
       sodipodi:nodetypes="cccccccc" /></g><g
     id="g26655"
     transform="matrix(0.81005283,0,0,0.81005283,-2.9933983,-3.1750719)"><g
       id="g26647"><path
         style="fill:#ffffff;stroke:none;stroke-width:1px;stroke-linecap:butt;stroke-linejoin:miter;stroke-opacity:1"
         d="m 369.0759,207.865 3.23346,9.70039 35.10609,34.64461 h 239.27574 l 64.2072,-124.71945 -18.47689,-14.31959 -65.59296,115.01865 z"
         id="path1043"
         sodipodi:nodetypes="cccccccc" /><path
         style="fill:#ffffff;stroke:none;stroke-width:1px;stroke-linecap:butt;stroke-linejoin:miter;stroke-opacity:1"
         d="M 909.52497,252.21 H 751.2049 L 746.92833,240.66151 771.06755,228.19 h 143.13369 z"
         id="path1600"
         sodipodi:nodetypes="cccccc" /><path
         style="fill:#ffffff;stroke:none;stroke-width:1px;stroke-linecap:butt;stroke-linejoin:miter;stroke-opacity:1"
         d="m 990.82329,207.865 0.46193,12.01001 L 824.06935,364.9186 811.13553,343.67018 959.41258,217.10347 Z"
         id="path1643"
         sodipodi:nodetypes="cccccc" /><path
         style="fill:#ffffff;stroke:none;stroke-width:1px;stroke-linecap:butt;stroke-linejoin:miter;stroke-opacity:1"
         d="m 923.84456,673.94461 3.23346,11.54806 L 674.86845,476.24187 440.21193,661.47271 412.95852,654.54388 529.36294,465.156 h 8.3146 L 479.93725,586.6413 676.71614,447.60269 Z"
         id="path1645"
         sodipodi:nodetypes="cccccccccc" /></g><path
       style="fill:#c6c6c6;fill-opacity:1;stroke:none;stroke-width:1px;stroke-linecap:butt;stroke-linejoin:miter;stroke-opacity:1"
       d="m 369.0759,207.865 253.13341,3e-5 L 706.74109,42.49685 771.87213,207.865 H 990.82329 L 826.84088,349.21325 923.84456,673.94461 671.17308,466.07958 430.04964,655.92964 404.64392,648.53888 491.48531,465.156 h 37.87763 L 479.93725,572.32171 671.635,422.65889 855.94199,574.1694 785.26788,338.58903 897.05307,241.12343 746.92833,240.66151 702.58379,126.10478 644.84351,242.97112 406.02969,243.43304 Z"
       id="path1002"
       sodipodi:nodetypes="cccccccccccccccccccccc" /></g><g
     id="g62724"
     transform="matrix(0.81005283,0,0,0.81005283,-2.9933983,-3.1750719)"><path
       style="fill:#c6c6c6;fill-opacity:1;stroke:none;stroke-width:0.312246;stroke-linejoin:bevel;stroke-dasharray:none"
       d="M 81.552734,463.812 C 111.0607,659.61961 279.31545,804.4185 477.33398,804.41797 621.52816,804.36828 754.54982,726.76181 825.55469,601.26172 L 800.36133,580.35938 C 735.98004,698.78715 612.12988,772.66966 477.33398,773.06055 296.64836,773.0252 142.58147,642.12022 113.36719,463.812 Z"
       id="path25988"
       sodipodi:nodetypes="ccccccc" /><path
       style="fill:url(#linearGradient35704);fill-opacity:1;stroke:none;stroke-width:0.312246;stroke-linejoin:bevel;stroke-dasharray:none"
       d="M 477.33398,3.9199219 C 315.06594,4.0010198 168.90402,102.04659 107.27539,252.156 l 34.24609,2.5e-4 C 201.19094,120.21981 332.53186,35.394705 477.33398,35.275391 544.9062,35.465289 611.12817,54.211636 668.77344,89.46875 l 6.62695,-13.076172 7.51758,-14.833984 C 620.87319,24.08497 549.81686,4.1632192 477.33398,3.9199219 Z"
       id="circle16258"
       sodipodi:nodetypes="cccccccc" /><path
       style="fill:#c6c6c6;fill-opacity:1;stroke:none;stroke-width:0.215417;stroke-linejoin:bevel;stroke-dasharray:none"
       d="m 208.43945,463.8125 a 276.13028,276.13028 0 0 0 268.89453,216.48633 276.13028,276.13028 0 0 0 246,-150.88477 L 701.43359,511.00781 A 248.69348,248.69348 0 0 1 477.33398,652.86133 248.69348,248.69348 0 0 1 236.44727,463.8125 Z"
       id="path27353" /><path
       style="fill:url(#linearGradient27465);fill-opacity:1;stroke:none;stroke-width:0.215417;stroke-linejoin:bevel;stroke-dasharray:none"
       d="M 477.33398,128.03906 A 276.13028,276.13028 0 0 0 247.07812,252.15625 h 34.18555 a 248.69348,248.69348 0 0 1 196.07031,-96.68164 248.69348,248.69348 0 0 1 136.81836,41.75977 l 12.74805,-25.15235 A 276.13028,276.13028 0 0 0 477.33398,128.03906 Z"
       id="circle16254" /></g><g
     id="g62588"
     transform="matrix(0.81005283,0,0,0.81005283,-2.9933983,-3.1750719)"><path
       id="path598"
       style="fill:url(#linearGradient62325);fill-opacity:1;stroke:none;stroke-width:1px;stroke-linecap:butt;stroke-linejoin:miter;stroke-opacity:1"
       d="M 60.511719,267.91406 3.6953125,433.2832 H 163.98242 l 20.32422,-42.95898 H 74.832031 l 6.048828,-17.55274 h 52.615231 l 57.74024,-40.65039 h -80.375 l -22.572268,19.1543 14.718748,-42.71094 h 99.77539 l 17.55469,-40.65039 z"
       sodipodi:nodetypes="cccccccccccccc" /><path
       id="path735"
       style="fill:url(#linearGradient62317);fill-opacity:1;stroke:none;stroke-width:1px;stroke-linecap:butt;stroke-linejoin:miter;stroke-opacity:1"
       d="m 266.51172,267.91406 c -18.32953,0.008 -40.47282,34.79848 -40.40268,51.73232 0.0892,21.5263 13.11302,50.59354 36.88148,50.49862 h 61.20283 c 4.40507,0.22545 4.55566,20.03296 0.90616,20.179 H 207.42 l -17.72469,42.9592 h 150.28711 c 23.12201,0.44828 44.97492,-28.3713 44.8195,-55.90622 C 384.64281,349.18922 370.74221,328.545 347.83217,328.545 h -52.71251 c -19.2426,0 -12.12646,-19.82271 -0.11185,-19.98055 h 93.77539 l 17.55469,-40.65039 z"
       sodipodi:nodetypes="csccccccssscccc" /><path
       id="path809"
       style="fill:url(#linearGradient49558);fill-opacity:1;stroke:none;stroke-width:1px;stroke-linecap:butt;stroke-linejoin:miter;stroke-opacity:1"
       d="m 480.51172,267.91406 c -53.90277,-0.0854 -76.57105,56.29175 -78.08111,75.94926 -3.73199,48.58197 17.62798,89.5015 92.14936,89.41968 h 51.11534 l 20.49305,-42.959 h -73.55814 c -19.31839,0 -35.85839,-20.30058 -35.26104,-40.51202 0.59111,-20.00024 16.75622,-39.90641 33.63863,-41.24753 H 608.7832 l 19.55469,-40.65039 z"
       sodipodi:nodetypes="cscccsscccc" /></g></svg>
